<?xml version="1.0" encoding="UTF-8" standalone="no"?>
<!-- Created with Inkscape (http://www.inkscape.org/) -->
<svg
   xmlns:dc="http://purl.org/dc/elements/1.1/"
   xmlns:cc="http://web.resource.org/cc/"
   xmlns:rdf="http://www.w3.org/1999/02/22-rdf-syntax-ns#"
   xmlns:svg="http://www.w3.org/2000/svg"
   xmlns="http://www.w3.org/2000/svg"
   xmlns:sodipodi="http://sodipodi.sourceforge.net/DTD/sodipodi-0.dtd"
   xmlns:inkscape="http://www.inkscape.org/namespaces/inkscape"
   version="1.0"
   width="544.52991"
   height="201.7953"
   id="svg2"
   sodipodi:version="0.32"
   inkscape:version="0.45.1"
   sodipodi:docname="simp.svg"
   sodipodi:docbase="/home/rubens/simp/imgs"
   inkscape:output_extension="org.inkscape.output.svg.inkscape">
  <metadata
     id="metadata2167">
    <rdf:RDF>
      <cc:Work
         rdf:about="">
        <dc:format>image/svg+xml</dc:format>
        <dc:type
           rdf:resource="http://purl.org/dc/dcmitype/StillImage" />
      </cc:Work>
    </rdf:RDF>
  </metadata>
  <sodipodi:namedview
     inkscape:window-height="588"
     inkscape:window-width="795"
     inkscape:pageshadow="2"
     inkscape:pageopacity="0.0"
     guidetolerance="10.0"
     gridtolerance="10.0"
     objecttolerance="10.0"
     borderopacity="1.0"
     bordercolor="#666666"
     pagecolor="#ffffff"
     id="base"
     inkscape:zoom="0.36014217"
     inkscape:cx="372.04724"
     inkscape:cy="526.18109"
     inkscape:window-x="108"
     inkscape:window-y="60"
     inkscape:current-layer="svg2" />
  <defs
     id="defs4" />
  <g
     id="layer1"
     transform="translate(-86.98398,-270.72663)">
    <path
       d="M 241.63883,274.25333 C 533.13654,138.93102 -177.37989,158.96077 -23.318051,239.82149 C 118.06338,344.72305 -24.332282,379.35871 -164.44459,306.05465 C -40.812895,325.77124 24.754268,341.71331 -46.432172,281.98791 C -393.47205,89.296004 766.09927,135.98327 241.63883,274.25333 z "
       transform="translate(251.42857,117.14286)"
       style="fill:#000000;fill-opacity:1;fill-rule:evenodd;stroke:none;stroke-width:0;stroke-linecap:round;stroke-linejoin:round;stroke-miterlimit:4;stroke-dashoffset:0;stroke-opacity:1"
       id="path2160" />
    <path
       d="M 375.77675,391.72242 C 335.73633,287.42689 294.49904,238.20974 265.15451,401.31174 C 226.78997,243.27964 190.3766,305.42476 202.0305,450.31127 C 224.19823,329.57725 243.47433,380.92558 266.41317,422.00164 C 355.16085,265.26922 291.28991,430.75842 462.51632,460.40011 C 418.4487,444.98654 404.41314,440.97313 375.77675,391.72242 z "
       transform="translate(109.09647,12.121831)"
       style="fill:#000000;fill-opacity:1;fill-rule:evenodd;stroke:none;stroke-width:0;stroke-linecap:round;stroke-linejoin:round;stroke-miterlimit:4;stroke-dashoffset:0;stroke-opacity:1"
       id="path2168" />
    <path
       d="M 276.78178,208.88481 C 276.78472,216.13933 270.45221,222.02173 262.63964,222.02173 C 254.82708,222.02173 248.49457,216.13933 248.49751,208.88481 C 248.49457,201.63029 254.82708,195.74789 262.63965,195.74789 C 270.45221,195.74789 276.78472,201.63029 276.78178,208.88481 z "
       transform="translate(68.690373,86.873119)"
       style="opacity:1;fill:#ff0000;fill-opacity:1;fill-rule:evenodd;stroke:#ffffff;stroke-width:1;stroke-linecap:round;stroke-linejoin:round;stroke-miterlimit:4;stroke-dasharray:none;stroke-dashoffset:0;stroke-opacity:1"
       id="path2173" />
  </g>
</svg>
